<svg xmlns="http://www.w3.org/2000/svg" viewBox="0 -0.5 48 48" shape-rendering="crispEdges">
<metadata>Made with Pixels to Svg https://codepen.io/shshaw/pen/XbxvNj</metadata>
<path stroke="#13ff80" d="M0 0h1M3 0h1M30 0h1M36 0h1M3 1h1M24 1h1M36 1h1M3 2h1M27 2h1M30 2h1M33 3h1M6 4h1M27 4h1M45 4h1M0 6h1M15 6h1M30 6h1M45 6h1M9 7h1M42 9h1M6 10h1M9 10h1M3 11h1M9 11h1M45 11h1M9 12h1M39 12h1M39 13h1M0 14h1M0 16h1M21 16h1M0 17h1M36 18h1M39 18h1M0 20h1M0 21h1M42 21h1M45 21h1M42 22h1M39 23h1M0 24h1M15 24h1M15 25h1M45 26h1M45 27h1M0 28h1M9 28h1M3 29h1M24 30h1M45 31h1M0 32h1M9 32h1M24 32h1M0 34h1M3 34h1M45 34h1M12 35h1M0 36h1M3 36h1M42 36h1M12 39h1M45 39h1M6 40h1M24 42h1M36 42h1M33 43h1M33 44h1M45 44h1M6 45h1M12 45h1M30 45h1M21 46h1M45 46h1" />
<path stroke="#12ff80" d="M1 0h2M4 0h26M31 0h5M37 0h4M42 0h5M0 1h3M4 1h18M23 1h1M25 1h10M38 1h3M42 1h5M0 2h3M4 2h3M8 2h5M14 2h9M24 2h3M28 2h2M31 2h16M0 3h7M8 3h12M21 3h2M24 3h9M34 3h13M0 4h6M8 4h14M23 4h4M28 4h6M35 4h6M42 4h3M46 4h1M0 5h5M6 5h32M39 5h4M44 5h3M2 6h13M16 6h14M31 6h9M42 6h3M46 6h1M0 7h9M10 7h1M12 7h2M33 7h14M0 8h14M34 8h10M45 8h2M0 9h14M34 9h6M41 9h1M43 9h4M0 10h5M7 10h2M10 10h4M34 10h10M45 10h2M0 11h3M4 11h5M10 11h3M34 11h4M39 11h6M46 11h1M0 12h1M2 12h7M10 12h3M34 12h5M40 12h7M0 13h11M34 13h5M40 13h7M1 14h4M6 14h1M33 14h11M45 14h2M0 15h7M17 15h30M1 16h3M5 16h2M16 16h3M20 16h1M22 16h19M42 16h5M1 17h6M15 17h5M21 17h1M23 17h11M35 17h5M41 17h6M0 18h7M15 18h2M18 18h10M29 18h7M37 18h2M40 18h1M42 18h1M44 18h3M0 19h5M6 19h1M15 19h11M27 19h5M33 19h4M38 19h9M1 20h6M15 20h2M18 20h2M28 20h16M45 20h2M1 21h6M15 21h5M28 21h4M33 21h9M43 21h2M46 21h1M0 22h7M15 22h5M28 22h14M43 22h4M0 23h7M15 23h5M28 23h6M40 23h7M1 24h14M16 24h4M28 24h5M41 24h6M0 25h11M12 25h3M16 25h4M28 25h5M42 25h2M45 25h2M0 26h16M17 26h3M28 26h5M41 26h2M44 26h1M0 27h1M2 27h18M28 27h5M41 27h4M46 27h1M1 28h8M10 28h6M17 28h12M30 28h3M41 28h5M0 29h3M4 29h24M29 29h4M41 29h6M0 30h10M11 30h13M25 30h8M42 30h1M44 30h3M0 31h4M5 31h27M41 31h4M46 31h1M1 32h8M10 32h14M25 32h3M29 32h2M41 32h6M0 33h7M8 33h6M41 33h6M1 34h2M4 34h10M36 34h4M41 34h4M46 34h1M0 35h7M8 35h4M13 35h1M34 35h13M2 36h1M4 36h1M6 36h1M8 36h6M34 36h8M43 36h4M0 37h1M2 37h12M34 37h13M0 38h13M35 38h12M0 39h12M13 39h1M35 39h10M46 39h1M0 40h6M7 40h7M34 40h13M0 41h4M5 41h2M8 41h39M0 42h24M25 42h11M37 42h10M0 43h32M34 43h3M38 43h9M0 44h33M34 44h11M46 44h1M0 45h1M2 45h4M7 45h5M13 45h17M31 45h9M41 45h6M0 46h5M6 46h8M15 46h1M17 46h4M22 46h3M26 46h18M46 46h1" />
<path stroke="#12ff81" d="M41 0h1M35 1h1M41 1h1M23 2h1M20 3h1M23 3h1M41 4h1M5 5h1M38 5h1M41 6h1M11 7h1M44 8h1M5 10h1M44 10h1M38 11h1M11 13h1M5 14h1M44 14h1M41 16h1M20 17h1M17 18h1M41 18h1M5 19h1M26 19h1M32 19h1M17 20h1M44 20h1M32 21h1M11 25h1M41 25h1M44 25h1M29 28h1M41 30h1M14 33h1M5 36h1M14 40h1M32 43h1M5 46h1M14 46h1M44 46h1" />
<path stroke="rgba(19,255,128,0.9725490196078431)" d="M47 0h1M47 1h1M47 2h1M47 3h1M47 5h1M47 6h1M47 7h1M47 8h1M47 10h1M47 11h1M47 12h1M47 13h1M47 14h1M47 16h1M47 17h1M47 18h1M47 19h1M47 20h1M47 22h1M47 23h1M47 24h1M47 25h1M47 26h1M47 27h1M47 28h1M47 29h1M47 30h1M47 31h1M47 32h1M47 33h1M47 35h1M47 36h1M47 37h1M47 38h1M47 39h1M47 40h1M47 41h1M47 42h1M47 43h1M47 44h1M47 45h1M47 46h1" />
<path stroke="#12fe80" d="M22 1h1M37 1h1M7 2h1M13 2h1M7 3h1M7 4h1M22 4h1M34 4h1M43 5h1M1 6h1M40 6h1M40 9h1M13 11h1M1 12h1M4 16h1M19 16h1M22 17h1M34 17h1M40 17h1M28 18h1M43 18h1M37 19h1M16 26h1M43 26h1M46 26h1M1 27h1M16 28h1M46 28h1M28 29h1M10 30h1M43 30h1M4 31h1M28 32h1M7 33h1M40 34h1M7 35h1M1 36h1M7 36h1M1 37h1M13 38h1M34 38h1M34 39h1M4 41h1M7 41h1M37 43h1M1 45h1M40 45h1M16 46h1M25 46h1" />
<path stroke="rgba(19,255,129,0.9725490196078431)" d="M47 4h1M47 9h1M47 15h1M47 21h1M47 34h1" />
<path stroke="#12f67a" d="M14 7h1" />
<path stroke="#12964f" d="M15 7h1" />
<path stroke="#127f44" d="M16 7h8M26 7h5" />
<path stroke="#137f44" d="M24 7h1" />
<path stroke="#127e44" d="M25 7h1" />
<path stroke="#128e4b" d="M31 7h1M13 13h1M7 22h1" />
<path stroke="#12ec77" d="M32 7h1M15 40h1" />
<path stroke="#126739" d="M14 8h1" />
<path stroke="#121312" d="M15 8h17M15 9h4M20 9h13M15 10h13M30 10h3M15 11h6M22 11h11M15 12h5M21 12h12M15 13h17M13 14h3M8 15h7M8 16h1M10 16h2M13 16h1M9 17h5M8 18h6M8 19h6M8 20h2M11 20h3M8 21h1M10 21h4M21 21h6M8 22h6M21 22h3M25 22h2M21 23h6M21 24h5M36 24h3M21 25h6M34 25h6M21 26h6M35 26h5M34 27h6M34 28h6M34 29h6M34 30h6M34 31h6M33 32h5M39 32h1M32 33h3M16 34h5M22 34h12M15 35h18M15 36h3M19 36h3M23 36h6M31 36h2M15 37h8M25 37h8M15 38h6M22 38h1M24 38h9M16 39h4M21 39h12" />
<path stroke="#124429" d="M32 8h1" />
<path stroke="#12ff7f" d="M33 8h1M35 34h1M14 39h1" />
<path stroke="#122b1c" d="M14 9h1" />
<path stroke="#121212" d="M19 9h1M28 10h1M10 20h1M34 26h1M22 36h1" />
<path stroke="#12f37a" d="M33 9h1" />
<path stroke="#122a1c" d="M14 10h1M14 11h1" />
<path stroke="#121313" d="M29 10h1M20 12h1M14 13h1M8 17h1M26 24h1M35 24h1M38 32h1M29 36h1M23 37h1M23 38h1M20 39h1" />
<path stroke="#13f27a" d="M33 10h1" />
<path stroke="#131312" d="M21 11h1M9 16h1M12 16h1M9 21h1M24 22h1M21 34h1M18 36h1M30 36h1M24 37h1M21 38h1" />
<path stroke="#12f27a" d="M33 11h1M33 12h1" />
<path stroke="#12fd7f" d="M13 12h1M12 13h1" />
<path stroke="#122018" d="M14 12h1" />
<path stroke="#121f17" d="M32 13h1" />
<path stroke="#12fb7e" d="M33 13h1M16 15h1M15 16h1M38 23h1" />
<path stroke="#12f67c" d="M7 14h1" />
<path stroke="#126839" d="M8 14h1" />
<path stroke="#122d1e" d="M9 14h1" />
<path stroke="#122c1d" d="M10 14h2M33 35h1" />
<path stroke="#122219" d="M12 14h1M34 24h1" />
<path stroke="#121d16" d="M16 14h1M14 16h1" />
<path stroke="#12281b" d="M17 14h14M14 17h1M14 18h1M14 19h1" />
<path stroke="#123522" d="M31 14h1" />
<path stroke="#12b15b" d="M32 14h1M33 24h1" />
<path stroke="#12964e" d="M7 15h1" />
<path stroke="#128848" d="M15 15h1" />
<path stroke="#127d43" d="M7 16h1M7 17h1M7 18h1M7 19h1M7 20h1M21 27h1M32 32h1" />
<path stroke="#12251a" d="M14 20h1M14 21h1" />
<path stroke="#12ee78" d="M20 20h1" />
<path stroke="#126c3b" d="M21 20h1" />
<path stroke="#124227" d="M22 20h1" />
<path stroke="#124127" d="M23 20h3" />
<path stroke="#126838" d="M26 20h1" />
<path stroke="#12eb76" d="M27 20h1M14 38h1" />
<path stroke="#127c43" d="M7 21h1" />
<path stroke="#12733e" d="M20 21h1M39 33h1M33 39h1" />
<path stroke="#126a3a" d="M27 21h1" />
<path stroke="#123723" d="M14 22h1" />
<path stroke="#124e2c" d="M20 22h1" />
<path stroke="#124529" d="M27 22h1M27 23h1M27 24h1M27 25h1" />
<path stroke="#12ef78" d="M7 23h1" />
<path stroke="#12522f" d="M8 23h1M23 27h3" />
<path stroke="#121814" d="M9 23h1M33 31h1" />
<path stroke="#121714" d="M10 23h3" />
<path stroke="#122c1e" d="M13 23h1" />
<path stroke="#12bd61" d="M14 23h1" />
<path stroke="#124e2d" d="M20 23h1M20 24h1M20 25h1" />
<path stroke="#12fe7f" d="M34 23h1" />
<path stroke="#12fa7e" d="M35 23h3" />
<path stroke="#124d2d" d="M39 24h1" />
<path stroke="#12f179" d="M40 24h1" />
<path stroke="#122f1e" d="M33 25h1" />
<path stroke="#12934d" d="M40 25h1" />
<path stroke="#127b42" d="M20 26h1" />
<path stroke="#12713e" d="M27 26h1" />
<path stroke="#122118" d="M33 26h1M33 27h1M33 28h1M33 29h1M33 30h1M17 33h12M30 33h1" />
<path stroke="#128446" d="M40 26h1M40 27h1M40 28h1M40 30h1M40 31h1M17 40h1M19 40h8M28 40h2M31 40h1" />
<path stroke="#12f47a" d="M20 27h1" />
<path stroke="#12532f" d="M22 27h1" />
<path stroke="#127941" d="M26 27h1" />
<path stroke="#12f079" d="M27 27h1" />
<path stroke="#128546" d="M40 29h1" />
<path stroke="#12f97d" d="M32 31h1M31 32h1M40 33h1M33 40h1" />
<path stroke="#129f53" d="M40 32h1" />
<path stroke="#12a757" d="M15 33h1" />
<path stroke="#122e1e" d="M16 33h1" />
<path stroke="#122119" d="M29 33h1" />
<path stroke="#121914" d="M31 33h1" />
<path stroke="#12291c" d="M35 33h1" />
<path stroke="#123220" d="M36 33h2" />
<path stroke="#123421" d="M38 33h1M33 36h1M33 37h1" />
<path stroke="#12f67b" d="M14 34h1" />
<path stroke="#121a15" d="M15 34h1" />
<path stroke="#12aa58" d="M34 34h1" />
<path stroke="#12e976" d="M14 35h1M14 36h1M14 37h1" />
<path stroke="#133521" d="M33 38h1" />
<path stroke="#123f26" d="M15 39h1" />
<path stroke="#12924d" d="M16 40h1" />
<path stroke="#138446" d="M18 40h1M27 40h1M30 40h1" />
<path stroke="#129e53" d="M32 40h1" />
<path stroke="rgba(18,255,128,0.9607843137254902)" d="M0 47h1M3 47h9M13 47h6M20 47h10M31 47h5M37 47h5M43 47h4" />
<path stroke="rgba(18,254,128,0.9607843137254902)" d="M1 47h1M19 47h1" />
<path stroke="rgba(18,255,129,0.9607843137254902)" d="M2 47h1" />
<path stroke="rgba(19,255,128,0.9607843137254902)" d="M12 47h1M30 47h1M36 47h1M42 47h1" />
<path stroke="rgba(18,255,128,0.9372549019607843)" d="M47 47h1" />
</svg>